<?xml version="1.0" encoding="UTF-8"?>
<svg width="173px" height="59px" viewBox="0 0 173 59" version="1.1" xmlns="http://www.w3.org/2000/svg" xmlns:xlink="http://www.w3.org/1999/xlink">
    <!-- Generator: Sketch 42 (36781) - http://www.bohemiancoding.com/sketch -->
    <title>eTABU-sticker-horizontal</title>
    <desc>Created with Sketch.</desc>
    <defs>
        <path d="M40.2024227,20.0493716 C40.2024227,19.8595817 40.1997756,19.6704079 40.1945161,19.4818852 L38.7859847,18.9143899 L31.6862643,36.4261493 C36.8381856,32.7982347 40.2024227,26.8154689 40.2024227,20.0493716 Z" id="path-1"></path>
    </defs>
    <g id="Symbols" stroke="none" stroke-width="1" fill="none" fill-rule="evenodd">
        <g id="eTABU-sticker-horizontal">
            <g id="Group-3" transform="translate(-2.000000, -3.000000)">
                <g id="Group-2-Copy" transform="translate(5.805677, 5.800000)" fill="#000000" fill-opacity="0.2">
                    <path d="M65.6842672,30.3935608 C65.6848282,30.4059576 65.6836616,30.4058854 65.6792106,30.3937897 L65.6842672,30.3935608 Z M73.4584559,39.2619565 L73.3615684,39.3559283 L73.2601881,39.4450344 C72.7688764,39.8768628 72.2798793,40.2627957 71.7876895,40.6028286 C71.2594598,40.9677601 70.6563027,41.3179294 69.957927,41.6760941 C68.9865362,42.1742757 67.9299573,42.5295999 66.7962396,42.7588602 C65.7626342,42.9678757 64.6771976,43.0681955 63.5398135,43.0681955 C61.2063173,43.0681955 59.0366898,42.6273712 57.0802534,41.7097898 C54.8918692,40.6834233 53.1205288,39.0663785 51.8549413,36.9681887 C50.5991157,34.886183 50,32.4823249 50,29.8561917 C50,27.4913203 50.5560872,25.2629163 51.6756353,23.262359 C52.8239459,21.2104051 54.478167,19.5670318 56.5493947,18.4027412 C58.5928823,17.2540441 60.8840126,16.6886802 63.3313739,16.6886802 C65.2496907,16.6886802 67.0386125,17.0111733 68.6695722,17.6961531 C70.4142086,18.4288755 71.8988481,19.5140599 73.0338556,20.9482518 C73.9921928,22.1592034 74.7085268,23.5242646 75.1712105,25.0112823 C75.5990544,26.3863281 75.8136849,27.8440402 75.8289893,29.4260992 C75.8289893,30.5128822 75.6087372,31.4922322 75.2147975,32.3455748 C75.9512568,34.83518 75.3495623,37.4277604 73.4584559,39.2619565 Z M88.8266878,34.3054247 C88.8266878,36.4818973 88.0693775,38.5097044 86.6244997,40.1338368 C85.0616223,41.890608 82.9322192,42.8902262 80.5723072,42.8902262 C78.1945811,42.8902262 76.0462461,41.8817207 74.4867069,40.0959351 C73.0706761,38.4744771 72.3328152,36.4618191 72.3328152,34.3054247 L72.3328152,25.2628574 C70.8832896,24.9966309 69.5505094,24.3175728 68.4556309,23.2782662 C66.9494184,21.8485033 66.1094041,19.9288886 66.1094041,17.8432627 C66.1094041,15.7576368 66.9494184,13.8380221 68.4556309,12.4082592 C69.8965756,11.0404514 71.7495801,10.2966155 73.7384658,10.2966155 L87.331706,10.2966155 C89.3293983,10.2966155 91.190527,11.0474481 92.6306088,12.4307105 C94.1247501,13.8658995 94.9458792,15.7841708 94.9458792,17.8580935 C94.9458792,19.9389819 94.1115354,21.8584422 92.6059251,23.2867933 C91.5356688,24.3021302 90.2375624,24.9703531 88.8266878,25.2462718 L88.8266878,34.3054247 Z M111.262328,33.524079 C111.260106,33.5174394 111.257814,33.5107645 111.25545,33.5040556 L111.262328,33.524079 Z M100.830882,37.0147714 L100.859329,37.0975835 L100.847628,37.0643828 C100.842005,37.0478683 100.836424,37.0313311 100.830882,37.0147714 Z M100.847628,37.0643828 L99.8766848,34.3093975 L105.063961,32.4812392 L105.063961,37.9812392 L100.161037,37.9812392 L96.3094977,37.9812392 L96.3094977,32.4812392 L101.496774,34.3093975 L100.542577,37.0147714 C100.431621,37.3463468 100.304447,37.6688856 100.161037,37.9812392 C99.575299,39.2570019 98.718712,40.3628548 97.5900773,41.2205343 C96.1002106,42.3527237 94.3258057,42.9600255 92.4203439,42.8244492 C91.0691371,42.7283089 89.7801323,42.3163292 88.612589,41.6237482 C86.836485,40.570172 85.6726297,38.8856615 85.1998028,36.9175864 C84.816117,35.3205484 84.9165648,33.6883507 85.4085581,32.0844382 L85.4671514,31.8934223 L90.9365849,17.8027032 C91.3379636,16.6513231 91.8053017,15.624935 92.3607818,14.7159013 C93.0503554,13.5874258 93.8732578,12.6310979 94.8787773,11.8798844 C95.78164,11.2053646 96.7615356,10.6958315 97.8222734,10.3882073 C98.7389596,10.1223595 99.6949445,10 100.686729,10 C101.678514,10 102.634499,10.1223595 103.551186,10.3882073 C104.611923,10.6958315 105.591819,11.2053646 106.494682,11.8798844 C107.500201,12.6310979 108.323104,13.5874258 109.012677,14.7159013 C109.568157,15.624935 110.035495,16.6513231 110.436874,17.8027032 L115.906308,31.8934223 L115.964901,32.0844382 C116.456894,33.6883507 116.557342,35.3205484 116.173656,36.9175864 C115.700829,38.8856615 114.536974,40.570172 112.76087,41.6237482 C111.593327,42.3163292 110.304322,42.7283089 108.953115,42.8244492 C107.047653,42.9600255 105.273248,42.3527237 103.783382,41.2205343 C102.654747,40.3628548 101.79816,39.2570019 101.212422,37.9812392 C101.076174,37.6844854 100.954581,37.3785382 100.847628,37.0643828 Z M137.140011,31.3689309 C137.140011,32.9027866 136.831622,34.3941571 136.22148,35.7959607 C135.622865,37.1712812 134.758776,38.4029417 133.66252,39.4674147 C132.447868,40.6468514 130.954087,41.5078241 129.236026,42.0926223 C127.649227,42.6327414 125.934845,42.8902262 124.106408,42.8902262 L117.421452,42.8902262 C116.415276,42.8902262 115.517023,42.8096971 114.669691,42.609792 C113.366376,42.3023096 112.193276,41.6679551 111.204932,40.7757433 C109.992063,39.6808457 109.245747,38.2828914 108.86281,36.7162197 C108.605871,35.6650281 108.497087,34.5078786 108.497087,33.1931165 L108.497087,18.5699708 C108.497087,15.9132329 109.604918,13.5008598 111.818628,11.9624034 C113.4489,10.8294174 115.361303,10.3114463 117.421452,10.3114463 L122.096455,10.3114463 C122.739815,10.3114463 123.22264,10.3140602 123.557499,10.3196195 C123.929517,10.3257957 124.427689,10.3452018 125.074613,10.3776932 C125.890289,10.4186601 126.567015,10.4849651 127.170814,10.5977383 C127.60985,10.679738 128.117415,10.7938053 128.710961,10.9416162 C129.75414,11.2013989 130.684347,11.5660604 131.53968,12.1237419 C132.009043,12.4297694 132.483251,12.7869263 132.976518,13.1987957 C133.893609,13.9645511 134.637853,14.8930461 135.160993,15.9650435 C135.511419,16.6831221 135.7842,17.4575325 135.996165,18.2936568 C136.23713,19.2441761 136.350919,20.2370975 136.350919,21.2691721 C136.350919,22.7798293 136.034807,24.2259671 135.425308,25.5604624 C136.554905,27.2707441 137.140011,29.2501838 137.140011,31.3689309 Z M144.844238,13.0774009 C146.404578,11.3216344 148.534093,10.3262771 150.890898,10.3262771 C153.240648,10.3262771 155.364512,11.3151891 156.92823,13.058615 C158.386631,14.6846207 159.145279,16.7229409 159.145279,18.9110786 L159.145279,30.1231457 C159.145279,32.8725469 158.438389,35.391061 156.982109,37.535857 C155.565203,39.6226625 153.61958,41.1915802 151.259911,42.17237 C149.172508,43.0399931 146.851917,43.4537957 144.32505,43.4537957 C142.472852,43.4537957 140.721831,43.2226331 139.081524,42.7454638 C137.335109,42.2374279 135.751825,41.462832 134.364803,40.4163822 C132.790573,39.2286925 131.56663,37.6884122 130.730053,35.8694213 C129.92237,34.1132547 129.534599,32.1819232 129.534599,30.1231457 L129.534599,18.9110786 C129.534599,16.7429451 130.273745,14.7199005 131.703165,13.0964186 C133.263733,11.3239828 135.406483,10.3262771 137.774091,10.3262771 C140.123841,10.3262771 142.247705,11.3151891 143.811423,13.058615 C143.998167,13.2668203 144.173438,13.481786 144.337112,13.7029609 C144.495301,13.4884756 144.664377,13.279789 144.844238,13.0774009 Z" id="eTABU" fill-rule="nonzero"></path>
                    <circle id="Oval-5" cx="26.7637519" cy="26.7694288" r="26.5"></circle>
                </g>
                <g id="Group-2-Copy-2" transform="translate(4.805677, 4.800000)" fill="#FFFFFF">
                    <path d="M65.6842672,30.3935608 C65.6848282,30.4059576 65.6836616,30.4058854 65.6792106,30.3937897 L65.6842672,30.3935608 Z M73.4584559,39.2619565 L73.3615684,39.3559283 L73.2601881,39.4450344 C72.7688764,39.8768628 72.2798793,40.2627957 71.7876895,40.6028286 C71.2594598,40.9677601 70.6563027,41.3179294 69.957927,41.6760941 C68.9865362,42.1742757 67.9299573,42.5295999 66.7962396,42.7588602 C65.7626342,42.9678757 64.6771976,43.0681955 63.5398135,43.0681955 C61.2063173,43.0681955 59.0366898,42.6273712 57.0802534,41.7097898 C54.8918692,40.6834233 53.1205288,39.0663785 51.8549413,36.9681887 C50.5991157,34.886183 50,32.4823249 50,29.8561917 C50,27.4913203 50.5560872,25.2629163 51.6756353,23.262359 C52.8239459,21.2104051 54.478167,19.5670318 56.5493947,18.4027412 C58.5928823,17.2540441 60.8840126,16.6886802 63.3313739,16.6886802 C65.2496907,16.6886802 67.0386125,17.0111733 68.6695722,17.6961531 C70.4142086,18.4288755 71.8988481,19.5140599 73.0338556,20.9482518 C73.9921928,22.1592034 74.7085268,23.5242646 75.1712105,25.0112823 C75.5990544,26.3863281 75.8136849,27.8440402 75.8289893,29.4260992 C75.8289893,30.5128822 75.6087372,31.4922322 75.2147975,32.3455748 C75.9512568,34.83518 75.3495623,37.4277604 73.4584559,39.2619565 Z M88.8266878,34.3054247 C88.8266878,36.4818973 88.0693775,38.5097044 86.6244997,40.1338368 C85.0616223,41.890608 82.9322192,42.8902262 80.5723072,42.8902262 C78.1945811,42.8902262 76.0462461,41.8817207 74.4867069,40.0959351 C73.0706761,38.4744771 72.3328152,36.4618191 72.3328152,34.3054247 L72.3328152,25.2628574 C70.8832896,24.9966309 69.5505094,24.3175728 68.4556309,23.2782662 C66.9494184,21.8485033 66.1094041,19.9288886 66.1094041,17.8432627 C66.1094041,15.7576368 66.9494184,13.8380221 68.4556309,12.4082592 C69.8965756,11.0404514 71.7495801,10.2966155 73.7384658,10.2966155 L87.331706,10.2966155 C89.3293983,10.2966155 91.190527,11.0474481 92.6306088,12.4307105 C94.1247501,13.8658995 94.9458792,15.7841708 94.9458792,17.8580935 C94.9458792,19.9389819 94.1115354,21.8584422 92.6059251,23.2867933 C91.5356688,24.3021302 90.2375624,24.9703531 88.8266878,25.2462718 L88.8266878,34.3054247 Z M111.262328,33.524079 C111.260106,33.5174394 111.257814,33.5107645 111.25545,33.5040556 L111.262328,33.524079 Z M100.830882,37.0147714 L100.859329,37.0975835 L100.847628,37.0643828 C100.842005,37.0478683 100.836424,37.0313311 100.830882,37.0147714 Z M100.847628,37.0643828 L99.8766848,34.3093975 L105.063961,32.4812392 L105.063961,37.9812392 L100.161037,37.9812392 L96.3094977,37.9812392 L96.3094977,32.4812392 L101.496774,34.3093975 L100.542577,37.0147714 C100.431621,37.3463468 100.304447,37.6688856 100.161037,37.9812392 C99.575299,39.2570019 98.718712,40.3628548 97.5900773,41.2205343 C96.1002106,42.3527237 94.3258057,42.9600255 92.4203439,42.8244492 C91.0691371,42.7283089 89.7801323,42.3163292 88.612589,41.6237482 C86.836485,40.570172 85.6726297,38.8856615 85.1998028,36.9175864 C84.816117,35.3205484 84.9165648,33.6883507 85.4085581,32.0844382 L85.4671514,31.8934223 L90.9365849,17.8027032 C91.3379636,16.6513231 91.8053017,15.624935 92.3607818,14.7159013 C93.0503554,13.5874258 93.8732578,12.6310979 94.8787773,11.8798844 C95.78164,11.2053646 96.7615356,10.6958315 97.8222734,10.3882073 C98.7389596,10.1223595 99.6949445,10 100.686729,10 C101.678514,10 102.634499,10.1223595 103.551186,10.3882073 C104.611923,10.6958315 105.591819,11.2053646 106.494682,11.8798844 C107.500201,12.6310979 108.323104,13.5874258 109.012677,14.7159013 C109.568157,15.624935 110.035495,16.6513231 110.436874,17.8027032 L115.906308,31.8934223 L115.964901,32.0844382 C116.456894,33.6883507 116.557342,35.3205484 116.173656,36.9175864 C115.700829,38.8856615 114.536974,40.570172 112.76087,41.6237482 C111.593327,42.3163292 110.304322,42.7283089 108.953115,42.8244492 C107.047653,42.9600255 105.273248,42.3527237 103.783382,41.2205343 C102.654747,40.3628548 101.79816,39.2570019 101.212422,37.9812392 C101.076174,37.6844854 100.954581,37.3785382 100.847628,37.0643828 Z M137.140011,31.3689309 C137.140011,32.9027866 136.831622,34.3941571 136.22148,35.7959607 C135.622865,37.1712812 134.758776,38.4029417 133.66252,39.4674147 C132.447868,40.6468514 130.954087,41.5078241 129.236026,42.0926223 C127.649227,42.6327414 125.934845,42.8902262 124.106408,42.8902262 L117.421452,42.8902262 C116.415276,42.8902262 115.517023,42.8096971 114.669691,42.609792 C113.366376,42.3023096 112.193276,41.6679551 111.204932,40.7757433 C109.992063,39.6808457 109.245747,38.2828914 108.86281,36.7162197 C108.605871,35.6650281 108.497087,34.5078786 108.497087,33.1931165 L108.497087,18.5699708 C108.497087,15.9132329 109.604918,13.5008598 111.818628,11.9624034 C113.4489,10.8294174 115.361303,10.3114463 117.421452,10.3114463 L122.096455,10.3114463 C122.739815,10.3114463 123.22264,10.3140602 123.557499,10.3196195 C123.929517,10.3257957 124.427689,10.3452018 125.074613,10.3776932 C125.890289,10.4186601 126.567015,10.4849651 127.170814,10.5977383 C127.60985,10.679738 128.117415,10.7938053 128.710961,10.9416162 C129.75414,11.2013989 130.684347,11.5660604 131.53968,12.1237419 C132.009043,12.4297694 132.483251,12.7869263 132.976518,13.1987957 C133.893609,13.9645511 134.637853,14.8930461 135.160993,15.9650435 C135.511419,16.6831221 135.7842,17.4575325 135.996165,18.2936568 C136.23713,19.2441761 136.350919,20.2370975 136.350919,21.2691721 C136.350919,22.7798293 136.034807,24.2259671 135.425308,25.5604624 C136.554905,27.2707441 137.140011,29.2501838 137.140011,31.3689309 Z M144.844238,13.0774009 C146.404578,11.3216344 148.534093,10.3262771 150.890898,10.3262771 C153.240648,10.3262771 155.364512,11.3151891 156.92823,13.058615 C158.386631,14.6846207 159.145279,16.7229409 159.145279,18.9110786 L159.145279,30.1231457 C159.145279,32.8725469 158.438389,35.391061 156.982109,37.535857 C155.565203,39.6226625 153.61958,41.1915802 151.259911,42.17237 C149.172508,43.0399931 146.851917,43.4537957 144.32505,43.4537957 C142.472852,43.4537957 140.721831,43.2226331 139.081524,42.7454638 C137.335109,42.2374279 135.751825,41.462832 134.364803,40.4163822 C132.790573,39.2286925 131.56663,37.6884122 130.730053,35.8694213 C129.92237,34.1132547 129.534599,32.1819232 129.534599,30.1231457 L129.534599,18.9110786 C129.534599,16.7429451 130.273745,14.7199005 131.703165,13.0964186 C133.263733,11.3239828 135.406483,10.3262771 137.774091,10.3262771 C140.123841,10.3262771 142.247705,11.3151891 143.811423,13.058615 C143.998167,13.2668203 144.173438,13.481786 144.337112,13.7029609 C144.495301,13.4884756 144.664377,13.279789 144.844238,13.0774009 Z" id="eTABU" fill-rule="nonzero"></path>
                    <circle id="Oval-5" cx="26.7637519" cy="26.7694288" r="26.5"></circle>
                </g>
                <g id="Group-2-Copy" transform="translate(59.805677, 20.800000)" fill-opacity="0.7" fill="#000000">
                    <path d="M4.71966829,12.9917603 L10.8686367,12.9917603 C10.7991565,11.8448412 10.5435724,10.9624188 10.1018768,10.3444667 C9.66018109,9.72651455 8.92320556,9.41754312 7.89092805,9.41754312 C6.92813076,9.41754312 6.17378543,9.74876049 5.62786944,10.4112052 C5.08195345,11.0736498 4.77922276,11.9338263 4.71966829,12.9917603 Z M8.03981348,22.0681955 C6.48147147,22.0681955 5.10677637,21.7888854 3.91568694,21.2302567 C2.7245975,20.671628 1.77422165,19.8040362 1.06453086,18.6274554 C0.354840071,17.4508746 0,16.0271342 0,14.3561917 C0,12.9126556 0.325063282,11.6100321 0.975199599,10.4482821 C1.62533592,9.28653212 2.54841638,8.36950494 3.74446869,7.69717304 C4.940521,7.02484114 6.3028091,6.68868023 7.83137388,6.68868023 C9.05224055,6.68868023 10.1217236,6.8814784 11.039855,7.26708052 C11.9579864,7.65268264 12.6850364,8.18411349 13.2210266,8.861389 C13.7570169,9.53866452 14.1565221,10.2999701 14.4195544,11.1453286 C14.6825866,11.9906871 14.8190636,12.9176014 14.8289893,13.9260992 C14.8289893,14.7368524 14.3277467,15.1422229 13.3252464,15.1422229 L4.6898912,15.1422229 C4.7990744,17.5547079 6.09932753,18.7609324 8.59068959,18.7609324 C9.28549176,18.7609324 9.96043232,18.6274567 10.6155315,18.3605014 C11.2706307,18.0935461 11.8413525,17.7573852 12.327714,17.3520086 C12.7247438,17.1048277 13.1366561,17.0850536 13.5634631,17.2926855 C13.9902702,17.5003174 14.2855567,17.8809702 14.4493315,18.4346553 C14.6131063,18.9883404 14.5064061,19.4480898 14.1292278,19.8139175 C13.7917524,20.1105345 13.4691705,20.365127 13.1614724,20.5777025 C12.8537743,20.790278 12.4493063,21.0250963 11.9480562,21.2821644 C11.446806,21.5392325 10.8661586,21.7345024 10.2060966,21.8679801 C9.5460345,22.0014577 8.82394736,22.0681955 8.03981348,22.0681955 Z M25.0723072,21.8902262 C25.8266639,21.8902262 26.474309,21.5861983 27.0152622,20.9781335 C27.5562153,20.3700686 27.8266878,19.6458396 27.8266878,18.8054247 L27.8266878,4.38990987 L31.831706,4.38990987 C32.4073992,4.38990987 32.903679,4.19216816 33.3205603,3.7966788 C33.7374416,3.40118945 33.9458792,2.9216658 33.9458792,2.35809348 C33.9458792,1.78463391 33.7374416,1.29769495 33.3205603,0.897261983 C32.903679,0.496829013 32.4073992,0.296615531 31.831706,0.296615531 L18.2384658,0.296615531 C17.6627725,0.296615531 17.1640113,0.496829013 16.7421672,0.897261983 C16.320323,1.29769495 16.1094041,1.77969037 16.1094041,2.3432627 C16.1094041,2.90683503 16.320323,3.38883044 16.7421672,3.78926341 C17.1640113,4.18969638 17.6627725,4.38990987 18.2384658,4.38990987 L22.3328152,4.38990987 L22.3328152,18.8054247 C22.3328152,19.6458396 22.5983249,20.3700686 23.1293523,20.9781335 C23.6603797,21.5861983 24.3080249,21.8902262 25.0723072,21.8902262 Z M50.5466051,19.7694252 L49.5639613,16.9812392 L40.8094977,16.9812392 L39.8268538,19.7694252 C39.5985617,20.4516443 39.2437216,20.9756598 38.762323,21.3414875 C38.2809243,21.7073151 37.7970515,21.8729238 37.31069,21.8383185 C36.8243285,21.8037132 36.3603068,21.6554069 35.9186112,21.3933952 C35.4769155,21.1313835 35.1865918,20.7111824 35.0476314,20.1327792 C34.9086709,19.554376 34.9483733,18.9092437 35.1667397,18.1973629 L40.6010581,4.19710977 C40.8889047,3.3566949 41.2065238,2.65224005 41.5539249,2.08372411 C41.901326,1.51520816 42.2735358,1.08264817 42.6705656,0.786031158 C43.0675955,0.489414144 43.4621379,0.284257119 43.8542049,0.170553931 C44.2462718,0.0568507417 44.6904422,0 45.1867295,0 C45.6830168,0 46.1271872,0.0568507417 46.5192541,0.170553931 C46.9113211,0.284257119 47.3058635,0.489414144 47.7028933,0.786031158 C48.0999232,1.08264817 48.472133,1.51520816 48.8195341,2.08372411 C49.1669352,2.65224005 49.4845543,3.3566949 49.7724009,4.19710977 L55.2067193,18.1973629 C55.4250857,18.9092437 55.464788,19.554376 55.3258276,20.1327792 C55.1868672,20.7111824 54.8965435,21.1313835 54.4548478,21.3933952 C54.0131521,21.6554069 53.5491305,21.8037132 53.062769,21.8383185 C52.5764075,21.8729238 52.0925347,21.7073151 51.611136,21.3414875 C51.1297374,20.9756598 50.7748973,20.4516443 50.5466051,19.7694252 Z M48.4622091,13.8816069 L45.1867295,4.61237151 L41.9112499,13.8816069 L48.4622091,13.8816069 Z M63.7378547,9.58068167 L65.6435882,9.58068167 C66.3582419,9.58068167 66.9736289,9.53866155 67.4897676,9.45462007 C68.0059064,9.37057858 68.4773722,9.22227229 68.9041793,9.00969677 C69.3309863,8.79712124 69.6535682,8.49062159 69.8719346,8.09018862 C70.090301,7.68975565 70.1994826,7.19787315 70.1994826,6.61452635 C70.1994826,6.03117956 70.0927824,5.54176882 69.8793789,5.14627947 C69.6659753,4.75079012 69.3533191,4.44923401 68.9414006,4.2416021 C68.5294822,4.03397019 68.0877932,3.89060745 67.6163203,3.81150958 C67.1448474,3.73241171 66.5914954,3.69286337 65.9562477,3.69286337 L63.7378547,3.69286337 L63.7378547,9.58068167 Z M63.7378547,18.5088092 L65.911582,18.5088092 C66.7651961,18.5088092 67.4699135,18.466789 68.0257552,18.3827476 C68.5815969,18.2987061 69.0778768,18.1405127 69.5146096,17.9081627 C69.9513423,17.6758127 70.2689614,17.3445954 70.4674763,16.9145007 C70.6659912,16.484406 70.7652472,15.9381445 70.7652472,15.2756999 C70.7652472,14.1485552 70.3384466,13.3575884 69.4848325,12.9027756 C68.6312184,12.4479629 67.385556,12.2205599 65.7478081,12.2205599 L63.7378547,12.2205599 L63.7378547,18.5088092 Z M61.9214524,21.8902262 C61.3060562,21.8902262 60.8097763,21.8457343 60.432598,21.7567492 C60.0554197,21.6677641 59.7080238,21.4799095 59.3904,21.1931797 C59.0727761,20.9064499 58.8444874,20.4788335 58.705527,19.9103175 C58.5665665,19.3418016 58.4970874,18.602742 58.4970874,17.6931165 L58.4970874,3.06997075 C58.4970874,2.1207963 58.8171879,1.42375678 59.4573984,0.978831254 C60.097609,0.533905732 60.9189521,0.311446308 61.9214524,0.311446308 L66.596455,0.311446308 C67.2118512,0.311446308 67.6684287,0.313918079 67.966201,0.318861696 C68.2639734,0.323805313 68.7081438,0.341107713 69.2987257,0.370769414 C69.8893075,0.400431116 70.3434036,0.444923001 70.6610274,0.504246403 C70.9786513,0.563569806 71.3856007,0.655025347 71.881888,0.77861577 C72.3781752,0.902206193 72.7627921,1.05298425 73.0357501,1.23095446 C73.3087081,1.40892466 73.6139202,1.6387994 73.9513955,1.92058557 C74.2888709,2.20237173 74.544455,2.52123024 74.7181555,2.87717066 C74.891856,3.23311107 75.04074,3.65578398 75.1648118,4.14520205 C75.2888836,4.63462013 75.3509186,5.17593806 75.3509186,5.76917209 C75.3509186,6.92597844 74.9737459,7.96906596 74.2193893,8.89846594 C73.4650327,9.82786592 72.4873614,10.3963733 71.2863462,10.6040052 L71.2863462,10.6633284 C72.7553565,10.8808475 73.9315397,11.4691291 74.814931,12.4281908 C75.6983224,13.3872524 76.1400114,14.5341544 76.1400114,15.8689309 C76.1400114,16.6500224 75.9861647,17.3940256 75.6784666,18.1009628 C75.3707685,18.8079 74.9216352,19.4480888 74.3310534,20.0215484 C73.7404715,20.5950079 72.9513866,21.0498139 71.963775,21.3859798 C70.9761633,21.7221458 69.8570523,21.8902262 68.6064084,21.8902262 L61.9214524,21.8902262 Z M88.8250505,22.4537957 C90.6613133,22.4537957 92.26926,22.1670703 93.6489386,21.5936107 C95.0286171,21.0201511 96.1229142,20.1377287 96.9318624,18.9463171 C97.7408106,17.7549054 98.1452787,16.3138627 98.1452787,14.6231457 L98.1452787,3.41107861 C98.1452787,2.5607765 97.8748062,1.83407572 97.3338531,1.23095446 C96.7928999,0.627833193 96.1452548,0.326277085 95.3908981,0.326277085 C94.6365415,0.326277085 93.9913777,0.627833193 93.4553875,1.23095446 C92.9193972,1.83407572 92.6514061,2.5607765 92.6514061,3.41107861 L92.6514061,14.534161 C92.6514061,15.8195014 92.2742335,16.7958511 91.5198768,17.4632394 C90.7655202,18.1306277 89.8672537,18.4643168 88.8250505,18.4643168 C87.792773,18.4643168 86.9019507,18.1306277 86.1525569,17.4632394 C85.4031631,16.7958511 85.0284719,15.8195014 85.0284719,14.534161 L85.0284719,3.41107861 C85.0284719,2.5607765 84.7579994,1.83407572 84.2170463,1.23095446 C83.6760931,0.627833193 83.028448,0.326277085 82.2740913,0.326277085 C81.5098089,0.326277085 80.8621638,0.627833193 80.3311364,1.23095446 C79.800109,1.83407572 79.5345993,2.5607765 79.5345993,3.41107861 L79.5345993,14.6231457 C79.5345993,15.9183733 79.7653694,17.067747 80.2269166,18.0713013 C80.6884638,19.0748555 81.3385903,19.8930118 82.1773158,20.5257948 C83.0160413,21.1585777 83.9961939,21.6381014 85.1178031,21.9643801 C86.2394124,22.2906588 87.4751491,22.4537957 88.8250505,22.4537957 Z" id="eTABU"></path>
                </g>
                <g id="Group-12" transform="translate(3.000000, 10.000000)">
                    <g id="etabuLogo-Copy">
                        <g id="LogoEtabu">
                            <g id="Tabu_symbol"></g>
                        </g>
                    </g>
                </g>
                <g id="Group-2" transform="translate(9.897159, 10.306713)"></g>
                <g id="Group-17-Copy" transform="translate(31.500000, 31.500000) rotate(12.000000) translate(-31.500000, -31.500000) translate(5.000000, 5.000000)">
                    <g id="Group-16" transform="translate(-0.000000, -0.000000)"></g>
                    <g id="Group" transform="translate(6.453577, 5.485540)">
                        <g id="Group-49" transform="translate(0.001679, 0.000738)">
                            <path d="M40.2007228,21.2511417 C40.2007228,32.6857492 31.2014929,41.9551792 20.1004567,41.9551792 C8.99936763,41.9551792 0.000190644822,32.6857492 0.000190644822,21.2511417 C0.000190644822,9.81658696 8.99936763,0.546998553 20.1004567,0.546998553 C31.2014929,0.546998553 40.2007228,9.81658696 40.2007228,21.2511417" id="Fill-3" fill="#D35526"></path>
                            <path d="M20.1002661,40.0738276 C8.99917698,40.0738276 0,31.1029851 0,20.036861 C0,8.97094798 8.99917698,-8.8817842e-16 20.1002661,-8.8817842e-16 C31.2013022,-8.8817842e-16 40.2005322,8.97094798 40.2005322,20.036861 C40.2005322,31.1029851 31.2013022,40.0738276 20.1002661,40.0738276 Z" id="Fill-5" fill="#FF6830"></path>
                            <polygon id="Fill-7" fill="#FFFFFF" points="1.27968218 20.1924749 1.27968218 18.9170722 0.000190644822 18.9170722 0.000190644822 20.1924749 0.639909935 20.1924749 0.639909935 21.4680359 1.91945443 21.4680359 1.91945443 20.1924749"></polygon>
                            <polygon id="Fill-9" fill="#FFFFFF" points="3.19895126 20.1924749 3.19895126 18.9170722 1.91945973 18.9170722 1.91945973 20.1924749 2.55923197 20.1924749 2.55923197 21.4680359 3.83867056 21.4680359 3.83867056 20.1924749"></polygon>
                            <polygon id="Fill-11" fill="#FFFFFF" points="5.11817268 20.1924749 5.11817268 18.9170722 3.83868115 18.9170722 3.83868115 20.1924749 4.47845339 20.1924749 4.47845339 21.4680359 5.75794493 21.4680359 5.75794493 20.1924749"></polygon>
                            <polygon id="Fill-13" fill="#FFFFFF" points="7.03744706 20.1924749 7.03744706 18.9170722 5.75790257 18.9170722 5.75790257 20.1924749 6.39767481 20.1924749 6.39767481 21.4680359 7.67721931 21.4680359 7.67721931 20.1924749"></polygon>
                            <polygon id="Fill-15" fill="#FFFFFF" points="8.95666848 20.1924749 8.95666848 18.9170722 7.6772299 18.9170722 7.6772299 20.1924749 8.31700215 20.1924749 8.31700215 21.4680359 9.59638777 21.4680359 9.59638777 20.1924749"></polygon>
                            <polygon id="Fill-17" fill="#FFFFFF" points="10.8759429 20.1924749 10.8759429 18.9170722 9.59634541 18.9170722 9.59634541 20.1924749 10.2361706 20.1924749 10.2361706 21.4680359 11.5157681 21.4680359 11.5157681 20.1924749"></polygon>
                            <polygon id="Fill-19" fill="#FFFFFF" points="12.7951643 20.1924749 12.7951643 18.9170722 11.5157257 18.9170722 11.5157257 20.1924749 12.155445 20.1924749 12.155445 21.4680359 13.4349365 21.4680359 13.4349365 20.1924749"></polygon>
                            <polygon id="Fill-21" fill="#FFFFFF" points="14.714391 20.1924749 14.714391 18.9170722 13.4348995 18.9170722 13.4348995 20.1924749 14.0747247 20.1924749 14.0747247 21.4680359 15.3541632 21.4680359 15.3541632 20.1924749"></polygon>
                            <polygon id="Fill-23" fill="#FFFFFF" points="16.6336866 20.1924749 16.6336866 18.9170722 15.3541421 18.9170722 15.3541421 20.1924749 15.9940202 20.1924749 15.9940202 21.4680359 17.2734588 21.4680359 17.2734588 20.1924749"></polygon>
                            <polygon id="Fill-25" fill="#FFFFFF" points="18.5529874 20.1924749 18.5529874 18.9170722 17.2734429 18.9170722 17.2734429 20.1924749 17.9132152 20.1924749 17.9132152 21.4680359 19.1927067 21.4680359 19.1927067 20.1924749"></polygon>
                            <polygon id="Fill-27" fill="#FFFFFF" points="20.4721347 20.1924749 20.4721347 18.9170722 19.1926961 18.9170722 19.1926961 20.1924749 19.8324684 20.1924749 19.8324684 21.4680359 21.1119599 21.4680359 21.1119599 20.1924749"></polygon>
                            <polygon id="Fill-29" fill="#FFFFFF" points="22.3914567 20.1924749 22.3914567 18.9170722 21.1119122 18.9170722 21.1119122 20.1924749 21.7516845 20.1924749 21.7516845 21.4680359 23.031176 21.4680359 23.031176 20.1924749"></polygon>
                            <polygon id="Fill-31" fill="#FFFFFF" points="24.3106781 20.1924749 24.3106781 18.9170722 23.0311866 18.9170722 23.0311866 20.1924749 23.6709059 20.1924749 23.6709059 21.4680359 24.9504504 21.4680359 24.9504504 20.1924749"></polygon>
                            <polygon id="Fill-33" fill="#FFFFFF" points="26.2299525 20.1924749 26.2299525 18.9170722 24.950461 18.9170722 24.950461 20.1924749 25.5901803 20.1924749 25.5901803 21.4680359 26.8697777 21.4680359 26.8697777 20.1924749"></polygon>
                            <polygon id="Fill-35" fill="#FFFFFF" points="28.1492534 20.1924749 28.1492534 18.9170722 26.8697618 18.9170722 26.8697618 20.1924749 27.5095341 20.1924749 27.5095341 21.4680359 28.7890256 21.4680359 28.7890256 20.1924749"></polygon>
                            <polygon id="Fill-37" fill="#FFFFFF" points="30.0683954 20.1924749 30.0683954 18.9170722 28.7890097 18.9170722 28.7890097 20.1924749 29.428782 20.1924749 29.428782 21.4680359 30.7081676 21.4680359 30.7081676 20.1924749"></polygon>
                            <polygon id="Fill-39" fill="#FFFFFF" points="31.9876168 20.1924749 31.9876168 18.9170722 30.7081782 18.9170722 30.7081782 20.1924749 31.3478975 20.1924749 31.3478975 21.4680359 32.627389 21.4680359 32.627389 20.1924749"></polygon>
                            <polygon id="Fill-41" fill="#FFFFFF" points="33.9069706 20.1924749 33.9069706 18.9170722 32.6273731 18.9170722 32.6273731 20.1924749 33.2671454 20.1924749 33.2671454 21.4680359 34.5466899 21.4680359 34.5466899 20.1924749"></polygon>
                            <polygon id="Fill-43" fill="#FFFFFF" points="35.826192 20.1924749 35.826192 18.9170722 34.5467005 18.9170722 34.5467005 20.1924749 35.1864727 20.1924749 35.1864727 21.4680359 36.4659643 21.4680359 36.4659643 20.1924749"></polygon>
                            <polygon id="Fill-45" fill="#FFFFFF" points="37.7454664 20.1924749 37.7454664 18.9170722 36.4659749 18.9170722 36.4659749 20.1924749 37.1057471 20.1924749 37.1057471 21.4680359 38.3852386 21.4680359 38.3852386 20.1924749"></polygon>
                            <polygon id="Fill-47" fill="#FFFFFF" points="39.6647937 20.1924749 39.6647937 18.9170722 38.3852492 18.9170722 38.3852492 20.1924749 39.0249685 20.1924749 39.0249685 21.4680359 40.304513 21.4680359 40.304513 20.1924749"></polygon>
                        </g>
                        <mask id="mask-2" fill="white">
                            <use xlink:href="#path-1"></use>
                        </mask>
                        <use id="Clip-51" fill-opacity="0.08" fill="#000000" xlink:href="#path-1"></use>
                    </g>
                    <g id="Group-57" transform="translate(43.561644, 24.362253)">
                        <path d="M2.48754952,15.0309435 C1.80763595,15.0309435 1.25640763,14.4814012 1.25640763,13.8036851 C1.25640763,13.1258635 1.80763595,12.5761629 2.48754952,12.5761629 C3.16762197,12.5761629 3.71885028,13.1258635 3.71885028,13.8036851 C3.71885028,14.4814012 3.16762197,15.0309435 2.48754952,15.0309435 M3.82052752,2.64032208 C3.82550547,2.59318075 3.82820627,2.54514199 3.82820627,2.49652254 C3.82820627,1.75213293 3.22290896,1.14895615 2.47632266,1.14895615 C1.72963044,1.14895615 1.12438609,1.75213293 1.12438609,2.49652254 C1.12438609,2.49837019 1.12443905,2.50021783 1.12443905,2.50201269 L1.10177349,2.50201269 L0.118787611,13.1821903 C0.0663073281,13.3805745 0.0380283462,13.5887249 0.0380283462,13.8036851 C0.0380283462,15.1460253 1.12973474,16.2342352 2.47632266,16.2342352 C3.8230165,16.2342352 4.94967444,15.1460253 4.94967444,13.8036851 C4.94967444,13.800465 3.82052752,2.64032208 3.82052752,2.64032208" id="Fill-53" fill="#9F9D9D"></path>
                        <path d="M2.48754952,13.9252275 C1.80763595,13.9252275 1.25640763,13.375738 1.25640763,12.6979691 C1.25640763,12.0201475 1.80763595,11.4706052 2.48754952,11.4706052 C3.16762197,11.4706052 3.71885028,12.0201475 3.71885028,12.6979691 C3.71885028,13.375738 3.16762197,13.9252275 2.48754952,13.9252275 M3.82820627,1.39070097 C3.82820627,0.646416938 3.22290896,0.0432401625 2.47632266,0.0432401625 C1.72963044,0.0432401625 1.12438609,0.646416938 1.12438609,1.39070097 C1.12438609,1.39254861 0.118787611,12.0764743 0.118787611,12.0764743 C0.0663073281,12.274753 0.0380283462,12.4830089 0.0380283462,12.6979691 C0.0380283462,14.0402566 1.12973474,15.128572 2.47632266,15.128572 C3.8230165,15.128572 4.91451106,14.0402566 4.91451106,12.6979691 C4.91451106,12.6945906 4.91435219,12.6913704 4.91435219,12.6882558 C4.91435219,12.6882558 3.82820627,1.43937321 3.82820627,1.39070097" id="Fill-55" fill="#D0D0D0"></path>
                    </g>
                </g>
            </g>
        </g>
    </g>
</svg>