<svg data-v-6805eed4="" version="1.0" xmlns="http://www.w3.org/2000/svg" xmlns:xlink="http://www.w3.org/1999/xlink" width="100%" height="100%" viewBox="0 0 340.000000 250.000000" preserveAspectRatio="xMidYMid meet" color-interpolation-filters="sRGB" style="margin: auto;"><g data-v-6805eed4="" fill="#FFFFFF" class="icon-text-wrapper icon-svg-group iconsvg" transform="translate(64.4800033569336,90.43858337402344)"><g class="iconsvg-imagesvg" transform="translate(0,0)"><g><rect fill="#FFFFFF" fill-opacity="0" stroke-width="2" x="0" y="0" width="60" height="69.12283127116886" class="image-rect"></rect> <svg x="0" y="0" width="60" height="69.12283127116886" filtersec="colorsb3957578581" class="image-svg-svg primary" style="overflow: visible;"><svg xmlns="http://www.w3.org/2000/svg" viewBox="-0.010001182556152344 0 140.71507263183594 162.11000061035156"><path d="M41.19 16.72c9.7-5.6 19.3-11.39 29.15-16.72 6.81 3.6 13.33 7.71 20 11.45 3 1.74 6.13 3.25 8.77 5.5a50.57 50.57 0 0 1-5.34 8.84c-7.88-4.37-15.54-9.13-23.46-13.43-8.14 4.24-15.87 9.23-24 13.59a55.57 55.57 0 0 1-5.22-9.23M25.53 25.66c1.17-.5 2.36-1.72 3.7-1.3A87.94 87.94 0 0 1 34.16 33c-6.78 4.22-13.84 8-20.78 12.06-1.28.85-3.15 1.73-2.79 3.59v25.53a45.83 45.83 0 0 1-10.6 0Q0 57.43 0 40.64c8.33-5.28 17.09-9.84 25.51-15M106.34 32.89a52.25 52.25 0 0 1 5.28-9.06c9.73 5.41 19.33 11 28.92 16.68.21 11.27.23 22.56 0 33.83a66.92 66.92 0 0 1-10.5-.11c-.11-8.77.12-17.54-.07-26.3.07-1.31-1.33-1.87-2.2-2.53-7.13-4.19-14.44-8.07-21.43-12.51M116 54.91c-1.33-.93-2.68-1.83-4.08-2.64-11.66-6.58-23.19-13.38-34.81-20-2.22-1.22-4.27-2.85-6.72-3.64-2.12.55-3.9 1.93-5.79 3Q50.3 39.86 36 48.12c-3.81 2.22-7.76 4.22-11.38 6.73-.53 11.22-.08 22.47-.22 33.7.16 6.41-.4 12.85.35 19.24C40 116.48 55 125.48 70.37 134c15.23-8.65 30.33-17.55 45.54-26.23.18-17.62.09-35.25.09-52.86zm-11 46.54a22.12 22.12 0 0 1-4.06 2.61c-10.26 5.71-20.27 11.88-30.57 17.51-11.83-6.3-23.2-13.47-35-19.91-.24-13.56-.12-27.13-.06-40.69C45 55.05 55 49.67 64.77 43.81q2.73-1.64 5.6-3c6.39 3.45 12.57 7.31 18.93 10.83 5.27 3.26 10.84 6 16 9.42.07 12.44 0 24.89.06 37.33-.07 1 .14 2.12-.36 3.06z" fill="#333333"></path><path d="M91.19 69.27c-1.41-1.71-3.58-2.51-5.43-3.65-5.24-2.75-10.12-6.14-15.44-8.72-3.53 1.62-6.77 3.77-10.13 5.69-3.67 2.15-7.47 4.06-11 6.47-.21 7.51-.1 15-.09 22.54-.33 2 1.78 2.86 3.19 3.72 6.08 3.29 11.84 7.14 18.05 10.18 7.06-3.78 13.91-8 20.84-12 .8-5.14.25-10.34.41-15.51-.04-2.88.41-5.87-.4-8.72z" fill="#FFFFFF"></path><path d="M0 88.52a45.92 45.92 0 0 1 10.61 0c0 9-.18 18 .06 27.06 7.73 4.75 15.72 9 23.51 13.7a51.35 51.35 0 0 1-5.18 9.19C19.22 133.26 9.74 127.45.1 122-.11 110.81.08 99.67 0 88.52M130 88.5a69.83 69.83 0 0 1 10.53-.11c.21 11.09.15 22.18 0 33.26-3.91 2.85-8.29 4.95-12.44 7.41q-8.23 4.86-16.55 9.57a32.65 32.65 0 0 1-5.23-9.24c7.76-4.76 15.85-9 23.55-13.83.26-9 0-18 .1-27.06M46.46 136.61c8.18 4.08 15.79 9.23 23.88 13.46 8-4.24 15.57-9.44 23.77-13.33 1.64 2.9 3.65 5.65 4.74 8.83-.67 1.11-2 1.59-3 2.29-6.91 3.79-13.66 7.86-20.49 11.79a22.19 22.19 0 0 1-5 2.46c-3.56-1.11-6.48-3.51-9.75-5.11-6.36-3.85-13-7.26-19.24-11.31a50.44 50.44 0 0 1 5.09-9z" fill="#333333"></path></svg></svg> <!----></g></g> <g transform="translate(67.00000381469727,15.676416397094727)"><g data-gra="path-name" fill-rule="" class="tp-name iconsvg-namesvg"><g transform="scale(1)"><g><path d="M22.69-28.93L22.69 0 10.99 0 10.99-28.93 0.52-28.93 0.52-37.05 33.15-37.05 33.15-28.93 22.69-28.93ZM57.53 0L55.58-8.13 44.78-8.13 42.84 0 30.88 0 42.84-37.05 58.11-37.05 69.55 0 57.53 0ZM50.38-29.05L50.12-29.05 46.28-15.34 54.02-15.34 50.38-29.05ZM96.85-19.57Q101.27-19.05 103.16-16.61 105.04-14.17 105.04-10.72L105.04-10.72Q105.04-8.58 104.39-6.66 103.74-4.75 102.83-3.41 101.92-2.08 101.27-1.69L101.27-1.69Q98.67 0 85.41 0L85.41 0 72.8 0 72.8-37.05 88.08-37.05Q93.28-37.05 96.49-36.5 99.71-35.95 101.73-34.03 103.74-32.11 103.74-28.21L103.74-28.21Q103.74-24.83 102.08-22.75 100.43-20.67 96.85-19.89L96.85-19.89 96.85-19.57ZM91.65-29.19Q91-29.84 90.12-30 89.25-30.16 87.36-30.16L87.36-30.16Q85.48-30.16 84.5-30.1L84.5-30.1 84.5-22.16 85.15-22.16Q85.48-22.16 87.88-22.16 90.29-22.16 91.07-22.49L91.07-22.49Q91.65-22.75 92.14-23.86 92.63-24.96 92.63-26.26L92.63-26.26Q92.63-28.21 91.65-29.19L91.65-29.19ZM92.76-7.48Q93.21-7.87 93.5-8.94 93.8-10.01 93.8-11.12L93.8-11.12Q93.8-12.48 93.44-13.68 93.08-14.88 92.5-15.41L92.5-15.41Q91.91-15.99 90.84-16.19 89.77-16.38 87.23-16.38L87.23-16.38Q85.61-16.38 84.5-16.32L84.5-16.32 84.5-6.89Q87.56-6.83 89.96-6.99 92.37-7.15 92.76-7.48L92.76-7.48ZM132.86-37.05L144.56-37.05 144.56-16.32Q144.56-9.88 143.16-6.27 141.77-2.67 137.93-0.98 134.1 0.72 126.75 0.72L126.75 0.72Q121.36 0.72 117.65-0.42 113.95-1.56 111.77-4.75 109.59-7.93 109.59-13.71L109.59-13.71 109.59-37.05 121.29-37.05 121.29-16.19Q121.29-12.74 121.65-10.95 122.01-9.17 123.31-8.22 124.61-7.28 127.27-7.28L127.27-7.28Q128.9-7.28 130.33-7.61 131.76-7.93 132.28-8.58L132.28-8.58Q132.86-9.36 132.86-14.24L132.86-14.24 132.86-37.05Z" transform="translate(-0.5199999809265137, 37.04999923706055)"></path></g> <!----> <!----> <!----> <!----> <!----> <!----> <!----></g></g> <!----></g></g></svg>